<svg xmlns="http://www.w3.org/2000/svg" width="24" height="24" viewBox="0 0 28.688 25.718">
    <path d="M0 1.206A1.2 1.2 0 0 1 1.206 0h2.285a2.813 2.813 0 0 1 2.542 1.607h20.645a2.008 2.008 0 0 1 1.939 2.532l-2.059 7.65a3.622 3.622 0 0 1-3.491 2.677H8.574l.272 1.434a1.21 1.21 0 0 0 1.185.98h14.482a1.206 1.206 0 0 1 0 2.411H10.031A3.613 3.613 0 0 1 6.48 16.35L3.888 2.738a.4.4 0 0 0-.4-.327H1.206A1.2 1.2 0 0 1 0 1.206zm6.43 22.1a2.411 2.411 0 1 1 2.411 2.411 2.411 2.411 0 0 1-2.411-2.41zM23.307 20.9a2.411 2.411 0 1 1-2.407 2.407 2.411 2.411 0 0 1 2.407-2.407z" style="fill:#999"/>
</svg>
