<svg xmlns="http://www.w3.org/2000/svg" width="15.5" height="16" viewBox="0 0 15.5 16">
    <path d="M0 2a2 2 0 0 1 2-2h5v4a1 1 0 0 0 1 1h4v4.5H5.5a2 2 0 0 0-2 2V16H2a2 2 0 0 1-2-2zm12 2H8V0zm-6.5 7h1a1.75 1.75 0 0 1 0 3.5H6v1a.5.5 0 0 1-1 0v-4a.5.5 0 0 1 .5-.5zm1 2.5a.75.75 0 0 0 0-1.5H6v1.5zm3-2.5h1a1.5 1.5 0 0 1 1.5 1.5v2a1.5 1.5 0 0 1-1.5 1.5h-1a.5.5 0 0 1-.5-.5v-4a.5.5 0 0 1 .5-.5zm1 4a.5.5 0 0 0 .5-.5v-2a.5.5 0 0 0-.5-.5H10v3zm2.5-3.5a.5.5 0 0 1 .5-.5H15a.5.5 0 0 1 0 1h-1v1h1a.5.5 0 0 1 0 1h-1v1.5a.5.5 0 0 1-1 0v-4z" style="fill:#f5536d"/>
</svg>
