<svg width="32" height="30" viewBox="0 0 32 30" fill="none" xmlns="http://www.w3.org/2000/svg">
<path d="M7.875 9C7.37772 9 6.90081 9.19754 6.54917 9.54917C6.19754 9.90081 6 10.3777 6 10.875V23.375C6 23.8723 6.19754 24.3492 6.54917 24.7008C6.90081 25.0525 7.37772 25.25 7.875 25.25H8.5C8.5 26.2446 8.89509 27.1984 9.59835 27.9017C10.3016 28.6049 11.2554 29 12.25 29C13.2446 29 14.1984 28.6049 14.9017 27.9017C15.6049 27.1984 16 26.2446 16 25.25H21C21 26.2446 21.3951 27.1984 22.0983 27.9017C22.8016 28.6049 23.7554 29 24.75 29C25.7446 29 26.6984 28.6049 27.4017 27.9017C28.1049 27.1984 28.5 26.2446 28.5 25.25H29.75C30.0815 25.25 30.3995 25.1183 30.6339 24.8839C30.8683 24.6495 31 24.3315 31 24C31 23.6685 30.8683 23.3505 30.6339 23.1161C30.3995 22.8817 30.0815 22.75 29.75 22.75V18.27C29.7506 17.9415 29.6864 17.6161 29.5612 17.3123C29.4359 17.0086 29.252 16.7326 29.02 16.5L26 13.48C25.7674 13.248 25.4914 13.0641 25.1877 12.9388C24.8839 12.8136 24.5585 12.7494 24.23 12.75H22.25V10.875C22.25 10.3777 22.0525 9.90081 21.7008 9.54917C21.3492 9.19754 20.8723 9 20.375 9H7.875ZM22.25 15.25H24.23L27.25 18.27V19H22.25V15.25ZM10.375 25.25C10.375 24.8792 10.485 24.5166 10.691 24.2083C10.897 23.9 11.1899 23.6596 11.5325 23.5177C11.8751 23.3758 12.2521 23.3387 12.6158 23.411C12.9795 23.4834 13.3136 23.662 13.5758 23.9242C13.838 24.1864 14.0166 24.5205 14.089 24.8842C14.1613 25.2479 14.1242 25.6249 13.9823 25.9675C13.8404 26.3101 13.6 26.603 13.2917 26.809C12.9834 27.015 12.6208 27.125 12.25 27.125C11.7527 27.125 11.2758 26.9275 10.9242 26.5758C10.5725 26.2242 10.375 25.7473 10.375 25.25ZM24.75 23.375C25.1208 23.375 25.4834 23.485 25.7917 23.691C26.1 23.897 26.3404 24.1899 26.4823 24.5325C26.6242 24.8751 26.6613 25.2521 26.589 25.6158C26.5166 25.9795 26.338 26.3136 26.0758 26.5758C25.8136 26.838 25.4795 27.0166 25.1158 27.089C24.7521 27.1613 24.3751 27.1242 24.0325 26.9823C23.6899 26.8404 23.397 26.6 23.191 26.2917C22.985 25.9834 22.875 25.6208 22.875 25.25C22.875 24.7527 23.0725 24.2758 23.4242 23.9242C23.7758 23.5725 24.2527 23.375 24.75 23.375Z" fill="white" stroke="#333333"/>
<g clip-path="url(#clip0_93_11)">
<path d="M6.75802 15.6401C8.36502 13.6291 12.031 8.75306 12.031 6.01506C12.0412 5.21856 11.8931 4.42797 11.5954 3.68916C11.2976 2.95035 10.8561 2.27802 10.2964 1.7112C9.73679 1.14437 9.07014 0.694333 8.33518 0.387194C7.60021 0.0800549 6.81157 -0.0780691 6.01501 -0.0780029C5.21845 -0.0779367 4.42984 0.0803185 3.69492 0.38758C2.96001 0.694841 2.29344 1.14499 1.73387 1.71191C1.17431 2.27883 0.732903 2.95123 0.435265 3.69009C0.137626 4.42895 -0.0103174 5.21956 1.8205e-05 6.01606C1.8205e-05 8.75406 3.66602 13.6291 5.27302 15.6411C5.36168 15.7531 5.47452 15.8435 5.60311 15.9057C5.73169 15.9679 5.87268 16.0003 6.01552 16.0003C6.15836 16.0003 6.29935 15.9679 6.42793 15.9057C6.55651 15.8435 6.66936 15.7521 6.75802 15.6401ZM6.01602 4.01006C6.41248 4.01025 6.79999 4.12799 7.12956 4.34838C7.45913 4.56876 7.71596 4.88191 7.86759 5.24824C8.01922 5.61456 8.05884 6.01762 7.98144 6.40646C7.90405 6.7953 7.71311 7.15246 7.43277 7.43281C7.15242 7.71315 6.79526 7.90409 6.40642 7.98148C6.01758 8.05888 5.61452 8.01926 5.2482 7.86763C4.88187 7.716 4.56873 7.45917 4.34834 7.1296C4.12795 6.80003 4.01022 6.41252 4.01002 6.01606C4.00989 5.75259 4.06168 5.49168 4.16245 5.24824C4.26321 5.0048 4.41097 4.78361 4.59727 4.59731C4.78357 4.41101 5.00476 4.26325 5.2482 4.16249C5.49164 4.06172 5.75255 4.00993 6.01602 4.01006Z" fill="url(#paint0_linear_93_11)"/>
</g>
<defs>
<linearGradient id="paint0_linear_93_11" x1="6.01551" y1="-0.0780029" x2="6.01551" y2="16.0003" gradientUnits="userSpaceOnUse">
<stop stop-color="#1F3F82"/>
<stop offset="1" stop-color="#003853"/>
</linearGradient>
<clipPath id="clip0_93_11">
<rect width="12.031" height="16" fill="white"/>
</clipPath>
</defs>
</svg>
