<svg xmlns="http://www.w3.org/2000/svg" width="24" height="21" viewBox="0 0 24 21">
  <g id="ico_excel" transform="translate(0 -12)">
    <path id="Path_48" data-name="Path 48" d="M23,12a1.025,1.025,0,0,1,1,1V32a1.025,1.025,0,0,1-1,1H7a1.025,1.025,0,0,1-1-1V28.5H1a.938.938,0,0,1-.7-.3.938.938,0,0,1-.3-.7v-10a.938.938,0,0,1,.3-.7.918.918,0,0,1,.7-.3H6V13a1.025,1.025,0,0,1,1-1ZM6,23.78l1.42,2.66H9.56L7.18,22.57l2.34-3.8H7.46l-1.3,2.4-.05.08-.04.09-.64-1.28-.66-1.29H2.59l2.27,3.82L2.38,26.44H4.54Zm8.25,7.72v-3H7.5v3Zm0-4.5V23.25H12V27Zm0-5.25V18H12v3.75Zm0-5.25v-3H7.5v3Zm8.25,15v-3H15.75v3Zm0-4.5V23.25H15.75V27Zm0-5.25V18H15.75v3.75Zm0-5.25v-3H15.75v3Z" fill="#3e8067"/>
  </g>
</svg>
