<svg id="logo_foot" xmlns="http://www.w3.org/2000/svg" xmlns:xlink="http://www.w3.org/1999/xlink" width="64.36" height="32" viewBox="0 0 64.36 32">
  <defs>
    <clipPath id="clip-path">
      <rect id="Rectangle_4823" data-name="Rectangle 4823" width="64.36" height="32" fill="#999"/>
    </clipPath>
  </defs>
  <g id="Group_14242" data-name="Group 14242" clip-path="url(#clip-path)">
    <path id="Path_14020" data-name="Path 14020" d="M29.966,33.717c.348,0,.524.154.524.463v2.732h1.539V34.207a.437.437,0,0,1,.5-.49.449.449,0,0,1,.511.5v5.058a.566.566,0,0,1-.169.413.5.5,0,0,1-.676.017.634.634,0,0,1-.166-.43V37.842H30.49v1.437a.566.566,0,0,1-.169.413.474.474,0,0,1-.355.141.464.464,0,0,1-.335-.124.631.631,0,0,1-.162-.43v-5.1q0-.463.5-.463m13.23,0a.465.465,0,0,1,.345.114.4.4,0,0,1,.169.349V44.189a.476.476,0,0,1-.149.369.511.511,0,0,1-.375.161.484.484,0,0,1-.361-.141.532.532,0,0,1-.149-.389V39.1H41.088a.477.477,0,0,1-.375-.144.412.412,0,0,1-.149-.322.419.419,0,0,1,.146-.329.492.492,0,0,1,.365-.138h1.6V34.207a.434.434,0,0,1,.149-.362.533.533,0,0,1,.371-.128m2.384,0a.5.5,0,0,1,.342.128.4.4,0,0,1,.169.349v10a.467.467,0,0,1-.153.369.481.481,0,0,1-.358.161.469.469,0,0,1-.348-.141.535.535,0,0,1-.153-.389V34.207a.476.476,0,0,1,.159-.369.5.5,0,0,1,.342-.121m-21.463.235a.5.5,0,0,1,.348.124.527.527,0,0,1,.176.4V35.64h2.484v-1.2a.446.446,0,0,1,.169-.376.475.475,0,0,1,.332-.114.53.53,0,0,1,.355.128.416.416,0,0,1,.169.362v4.152a.975.975,0,0,1-.421.806,1.489,1.489,0,0,1-.942.289H24.83a1.219,1.219,0,0,1-.849-.279,1,1,0,0,1-.361-.816v-4.1a.545.545,0,0,1,.149-.4.48.48,0,0,1,.348-.141m13.041.158h4.214c.3,0,.444.131.444.4-.013.346-.159.52-.444.52H39.765v2.115a9.559,9.559,0,0,0,.623,3.581,7.858,7.858,0,0,0,1.641,2.2.452.452,0,0,1,.179.393.5.5,0,0,1-.172.332.616.616,0,0,1-.351.161.534.534,0,0,1-.4-.151,7.155,7.155,0,0,1-1.316-1.792,5.441,5.441,0,0,1-.713-2.256,5.5,5.5,0,0,1-.726,2.259A6.6,6.6,0,0,1,37.1,43.686a.658.658,0,0,1-.4.138.477.477,0,0,1-.315-.158.47.47,0,0,1-.119-.356.572.572,0,0,1,.225-.386,6.677,6.677,0,0,0,1.476-1.99,9.345,9.345,0,0,0,.773-3.779V35.026H37.145c-.325,0-.481-.158-.471-.47s.159-.446.484-.446M24.641,36.57v1.906a.324.324,0,0,0,.073.248.456.456,0,0,0,.305.074h1.628A.592.592,0,0,0,27,38.718a.286.286,0,0,0,.126-.242V36.57Zm-.2,4.323h7.255a1.425,1.425,0,0,1,.965.316,1.112,1.112,0,0,1,.381.869V44.2a.517.517,0,0,1-.176.393.477.477,0,0,1-.335.124.489.489,0,0,1-.342-.121.54.54,0,0,1-.159-.4V42.118a.305.305,0,0,0-.06-.218.494.494,0,0,0-.3-.077H24.439q-.507,0-.507-.463c0-.312.169-.467.507-.467" transform="translate(-15.788 -22.399)" fill="#999"/>
    <path id="Path_14021" data-name="Path 14021" d="M45.059,44.463a.73.73,0,0,1-.531-.217.8.8,0,0,1-.228-.575V33.689a.735.735,0,0,1,.244-.563.786.786,0,0,1,1.026,0,.647.647,0,0,1,.258.546v10a.731.731,0,0,1-.241.567.723.723,0,0,1-.528.225m0-11a.246.246,0,0,0-.173.058.211.211,0,0,0-.069.171v9.982a.273.273,0,0,0,.077.2.215.215,0,0,0,.165.064.224.224,0,0,0,.172-.082.218.218,0,0,0,.08-.187v-10a.138.138,0,0,0-.06-.135.268.268,0,0,0-.192-.08m-2.394,11a.737.737,0,0,1-.544-.217.8.8,0,0,1-.225-.575v-.642a.8.8,0,0,1-.208.3.876.876,0,0,1-.5.227.8.8,0,0,1-.6-.216,7.454,7.454,0,0,1-1.371-1.862,6.958,6.958,0,0,1-.489-1.107,6.8,6.8,0,0,1-.5,1.113,6.894,6.894,0,0,1-1.484,1.887.925.925,0,0,1-.566.2.743.743,0,0,1-.5-.242.728.728,0,0,1-.188-.546.835.835,0,0,1,.318-.575,6.445,6.445,0,0,0,1.41-1.906,9.118,9.118,0,0,0,.745-3.662V34.77H36.624a.732.732,0,0,1-.552-.2.715.715,0,0,1-.178-.538.665.665,0,0,1,.743-.7h4.214a.626.626,0,0,1,.7.658c-.027.707-.5.782-.7.782H39.5v1.853a9.335,9.335,0,0,0,.6,3.483,7.625,7.625,0,0,0,1.574,2.106.731.731,0,0,1,.215.288V38.844h-1.33A.722.722,0,0,1,40,38.613a.649.649,0,0,1-.215-.5.68.68,0,0,1,.236-.527.735.735,0,0,1,.534-.2H41.9v-3.7a.681.681,0,0,1,.251-.57.765.765,0,0,1,.519-.182.724.724,0,0,1,.52.175.65.65,0,0,1,.262.55V43.671a.738.738,0,0,1-.235.564.758.758,0,0,1-.547.228m-2.112-6.552a.229.229,0,0,0-.182.061.172.172,0,0,0-.07.144.149.149,0,0,0,.06.125.263.263,0,0,0,.205.08h1.588a.26.26,0,0,1,.259.262v5.088a.267.267,0,0,0,.074.2.226.226,0,0,0,.178.064.257.257,0,0,0,.192-.085.218.218,0,0,0,.074-.184V33.662a.141.141,0,0,0-.059-.135.23.23,0,0,0-.176-.067.363.363,0,0,0-.218.061.2.2,0,0,0-.063.167V37.65a.26.26,0,0,1-.259.262Zm-3.916-4.058c-.225,0-.225.074-.225.185a.251.251,0,0,0,.032.165.279.279,0,0,0,.18.043h1.595a.26.26,0,0,1,.259.262v2.128a9.648,9.648,0,0,1-.795,3.885A6.98,6.98,0,0,1,36.144,42.6a.324.324,0,0,0-.142.217.194.194,0,0,0,.052.153.22.22,0,0,0,.152.076.412.412,0,0,0,.219-.089,6.378,6.378,0,0,0,1.353-1.733,5.267,5.267,0,0,0,.694-2.149.26.26,0,0,1,.258-.243h0a.26.26,0,0,1,.256.246,5.206,5.206,0,0,0,.681,2.145,6.934,6.934,0,0,0,1.268,1.728.269.269,0,0,0,.209.08.357.357,0,0,0,.2-.1.226.226,0,0,0,.085-.156.188.188,0,0,0-.085-.17,8.153,8.153,0,0,1-1.706-2.282,9.855,9.855,0,0,1-.654-3.7V34.508a.26.26,0,0,1,.259-.262h1.608c.086,0,.176,0,.186-.269,0-.077,0-.124-.186-.124Zm-4.629,10.61a.744.744,0,0,1-.513-.187.808.808,0,0,1-.246-.592V41.6c0-.009,0-.017,0-.025a.477.477,0,0,0-.1-.009H23.918a.728.728,0,1,1,0-1.453h7.255a1.679,1.679,0,0,1,1.133.378,1.374,1.374,0,0,1,.472,1.068v2.125a.783.783,0,0,1-.26.586.737.737,0,0,1-.51.193m-8.091-3.826c-.237,0-.249.078-.249.2s.012.2.249.2h7.228a.738.738,0,0,1,.457.13.185.185,0,0,1,.027.024.545.545,0,0,1,.136.4v2.084a.279.279,0,0,0,.084.211.235.235,0,0,0,.159.044.223.223,0,0,0,.163-.058.252.252,0,0,0,.089-.2V41.56a.855.855,0,0,0-.294-.673,1.169,1.169,0,0,0-.794-.25Zm8.091-1.061a.72.72,0,0,1-.514-.2.914.914,0,0,1-.245-.619V37.586H30.228v1.175a.835.835,0,0,1-.245.6.729.729,0,0,1-.538.217.72.72,0,0,1-.514-.2.9.9,0,0,1-.242-.619v-5.1a.681.681,0,0,1,.756-.725.694.694,0,0,1,.783.725v2.47h1.021V33.689a.694.694,0,0,1,.759-.752.7.7,0,0,1,.769.765v5.058a.835.835,0,0,1-.245.6.713.713,0,0,1-.525.217m-.142-.56a.226.226,0,0,0,.142.037.2.2,0,0,0,.159-.065.3.3,0,0,0,.093-.228V33.7c0-.171-.035-.242-.252-.242s-.242.057-.242.228v2.705a.26.26,0,0,1-.259.262H29.969a.26.26,0,0,1-.259-.262V33.662c0-.108,0-.2-.265-.2-.227,0-.239.077-.239.2v5.1a.367.367,0,0,0,.1.255.226.226,0,0,0,.142.037.217.217,0,0,0,.172-.065.3.3,0,0,0,.093-.228V37.324a.26.26,0,0,1,.259-.262h1.539a.26.26,0,0,1,.259.262v1.437A.374.374,0,0,0,31.866,39.016Zm-5.6.416H24.309a1.473,1.473,0,0,1-1.021-.345,1.255,1.255,0,0,1-.448-1.011v-4.1a.811.811,0,0,1,.225-.584.784.784,0,0,1,1.051-.027.794.794,0,0,1,.262.6v.9h1.966v-.936a.705.705,0,0,1,.271-.584.715.715,0,0,1,.489-.168.786.786,0,0,1,.52.188.662.662,0,0,1,.262.564v4.152a1.243,1.243,0,0,1-.525,1.015,1.74,1.74,0,0,1-1.1.341M23.6,33.7a.225.225,0,0,0-.168.068.277.277,0,0,0-.07.211v4.1a.74.74,0,0,0,.267.614.975.975,0,0,0,.685.219h1.956a1.244,1.244,0,0,0,.784-.234.72.72,0,0,0,.32-.6V33.924c0-.106-.039-.134-.06-.149a.3.3,0,0,0-.206-.08.216.216,0,0,0-.16.049.193.193,0,0,0-.082.18v1.2a.26.26,0,0,1-.259.262H24.12a.26.26,0,0,1-.259-.262V33.961a.265.265,0,0,0-.092-.209A.242.242,0,0,0,23.6,33.7m2.53,4.847H24.5a.668.668,0,0,1-.482-.144.563.563,0,0,1-.155-.44V36.052a.26.26,0,0,1,.259-.262H26.6a.26.26,0,0,1,.259.262v1.906a.549.549,0,0,1-.234.454.811.811,0,0,1-.5.13m-1.745-.531a.733.733,0,0,0,.117.008h1.628a.423.423,0,0,0,.2-.028c.023-.016.023-.02.023-.032V36.314H24.379v1.645a.5.5,0,0,0,0,.053" transform="translate(-15.267 -21.881)" fill="#999"/>
    <path id="Path_14022" data-name="Path 14022" d="M110.236,33.72c.348,0,.524.158.524.473v1.413h1.283a.4.4,0,0,1,.451.45c0,.312-.149.467-.451.467H110.76v1.494h1.283a.4.4,0,0,1,.451.45c0,.312-.149.467-.451.467H110.76v.4a.459.459,0,0,1-.166.373.487.487,0,0,1-.358.141.5.5,0,0,1-.361-.151.476.476,0,0,1-.136-.366V34.2c0-.319.166-.477.5-.477m-5.279.222a2.7,2.7,0,0,1,2.135.809,2.62,2.62,0,0,1,.885,1.98,2.545,2.545,0,0,1-.892,1.943,2.665,2.665,0,0,1-2.129.809,2.99,2.99,0,0,1-2.324-.977,2.249,2.249,0,0,1-.723-1.776,2.675,2.675,0,0,1,.759-1.94,3.09,3.09,0,0,1,2.288-.849m0,.93a2.038,2.038,0,0,0-1.535.564,1.978,1.978,0,0,0,0,2.581,2.006,2.006,0,0,0,1.532.574,2.123,2.123,0,0,0,1.479-.463,2.1,2.1,0,0,0,.534-1.4,1.848,1.848,0,0,0-.4-1.255,2.258,2.258,0,0,0-1.611-.6m-2.122,5.79h6.529a1.553,1.553,0,0,1,1.081.379,1.145,1.145,0,0,1,.315.879v2.286a.517.517,0,0,1-.176.393.488.488,0,0,1-.348.124.5.5,0,0,1-.342-.121.551.551,0,0,1-.156-.4V41.923a.316.316,0,0,0-.073-.248.438.438,0,0,0-.305-.084h-6.526a.411.411,0,0,1-.471-.46c-.01-.312.146-.47.471-.47" transform="translate(-68.119 -22.402)" fill="#999"/>
    <path id="Path_14023" data-name="Path 14023" d="M109.715,44.466a.753.753,0,0,1-.51-.184.818.818,0,0,1-.246-.595V41.4a.463.463,0,0,0,0-.057.387.387,0,0,0-.116-.013h-6.525a.667.667,0,0,1-.73-.722.708.708,0,0,1,.178-.529.731.731,0,0,1,.552-.2h6.529a1.8,1.8,0,0,1,1.253.446,1.4,1.4,0,0,1,.4,1.074v2.286a.781.781,0,0,1-.26.586.739.739,0,0,1-.523.193m-7.4-4.061a.277.277,0,0,0-.18.043.238.238,0,0,0-.032.157c0,.159.03.206.213.206h6.525a.668.668,0,0,1,.483.155.567.567,0,0,1,.154.439v2.282a.287.287,0,0,0,.083.214.252.252,0,0,0,.156.042.231.231,0,0,0,.173-.055.255.255,0,0,0,.093-.2V41.4a.892.892,0,0,0-.232-.687,1.29,1.29,0,0,0-.906-.31Zm6.666.954,0,0,0,0m.734-1.766a.751.751,0,0,1-.541-.225.729.729,0,0,1-.215-.554V33.678a.687.687,0,0,1,.756-.738.7.7,0,0,1,.783.735v1.151h1.025a.653.653,0,0,1,.71.712.661.661,0,0,1-.71.728H110.5v.97h1.025a.653.653,0,0,1,.71.711.661.661,0,0,1-.71.728H110.5v.141a.784.784,0,0,1-.783.775m0-6.129c-.215,0-.239.069-.239.215v5.135c0,.124.04.161.053.174a.247.247,0,0,0,.364.014.21.21,0,0,0,.087-.184v-.4a.26.26,0,0,1,.259-.261h1.283c.149,0,.192-.027.192-.205,0-.145-.025-.188-.192-.188h-1.283a.26.26,0,0,1-.259-.262V36a.26.26,0,0,1,.259-.262h1.283c.149,0,.192-.027.192-.2,0-.148-.024-.188-.192-.188h-1.283a.26.26,0,0,1-.259-.262V33.675c0-.113,0-.211-.265-.211m-5.279,5.763a3.249,3.249,0,0,1-2.515-1.061,2.494,2.494,0,0,1-.791-1.953,2.945,2.945,0,0,1,.834-2.123,3.352,3.352,0,0,1,2.472-.928,2.955,2.955,0,0,1,2.328.9,2.868,2.868,0,0,1,.952,2.155,2.814,2.814,0,0,1-.978,2.137,2.9,2.9,0,0,1-2.3.877m0-5.541a2.822,2.822,0,0,0-2.106.774,2.4,2.4,0,0,0-.682,1.754,1.983,1.983,0,0,0,.634,1.579,2.74,2.74,0,0,0,2.154.912,2.433,2.433,0,0,0,1.934-.72,2.307,2.307,0,0,0,.828-1.771,2.35,2.35,0,0,0-.8-1.788,2.45,2.45,0,0,0-1.96-.739m0,4.649a2.262,2.262,0,0,1-1.719-.654,2.241,2.241,0,0,1,0-2.945,2.3,2.3,0,0,1,1.721-.643,2.518,2.518,0,0,1,1.788.674,2.112,2.112,0,0,1,.484,1.447,2,2,0,0,1-2.272,2.121m0-3.719a1.781,1.781,0,0,0-1.351.486,1.716,1.716,0,0,0,0,2.216,1.749,1.749,0,0,0,1.346.494,1.889,1.889,0,0,0,1.306-.4,1.816,1.816,0,0,0,.448-1.2,1.6,1.6,0,0,0-.337-1.082,1.988,1.988,0,0,0-1.417-.515" transform="translate(-67.597 -21.884)" fill="#999"/>
    <path id="Path_14024" data-name="Path 14024" d="M141.333,34.3h8.14a.538.538,0,0,1,.365.128.459.459,0,0,1,.146.326.5.5,0,0,1-.109.312.49.49,0,0,1-.365.151h-1.273l.076.047a.317.317,0,0,1,.07.064.465.465,0,0,1,.1.4l-.385,1.628h1.416a.414.414,0,0,1,.471.44c.017.319-.116.48-.408.48H141.28c-.288,0-.428-.158-.418-.47a.4.4,0,0,1,.458-.45h1.429l-.371-1.668a.492.492,0,0,1,.093-.409l.06-.057h-1.2a.41.41,0,0,1-.471-.46c-.01-.3.146-.456.471-.456m1.854.916.063.057a.527.527,0,0,1,.133.3l.365,1.776H147.1l.365-1.755a.428.428,0,0,1,.249-.366l.023-.013Zm-2.7,3.877h9.888a.443.443,0,0,1,.484.49q0,.4-.458.4h-4.473v.91l0,.06h2.656a1.362,1.362,0,0,1,.905.3.884.884,0,0,1,.351.738v1.678a1.056,1.056,0,0,1-.318.8,1.125,1.125,0,0,1-.839.322h-6.5a1.183,1.183,0,0,1-.859-.285A1.041,1.041,0,0,1,141,43.7V42.1a1.119,1.119,0,0,1,.325-.842,1.226,1.226,0,0,1,.872-.3h2.729l0-.034v-.936h-4.447q-.5,0-.5-.453c0-.292.169-.44.511-.44m1.936,2.779a.551.551,0,0,0-.312.057.418.418,0,0,0-.076.285v1.332c0,.134.017.218.056.252a.623.623,0,0,0,.371.077h5.922a.645.645,0,0,0,.332-.064.254.254,0,0,0,.086-.215V42.174c0-.111-.023-.181-.063-.208a.631.631,0,0,0-.378-.094Z" transform="translate(-93.565 -22.788)" fill="#999"/>
    <path id="Path_14025" data-name="Path 14025" d="M148.163,44.535h-6.5a1.431,1.431,0,0,1-1.039-.358,1.294,1.294,0,0,1-.4-.994v-1.6a1.374,1.374,0,0,1,.405-1.032,1.48,1.48,0,0,1,1.05-.371h2.468v-.447h-4.188a.71.71,0,1,1,.013-1.416h9.888a.7.7,0,0,1,.742.741.638.638,0,0,1-.716.675h-4.214v.447h2.394a1.612,1.612,0,0,1,1.071.362,1.143,1.143,0,0,1,.444.94v1.678a1.315,1.315,0,0,1-.4.985,1.375,1.375,0,0,1-1.017.394M141.677,40.7a.973.973,0,0,0-.7.229.855.855,0,0,0-.242.65v1.6a.782.782,0,0,0,.24.612.944.944,0,0,0,.685.217h6.5a.872.872,0,0,0,.656-.246.8.8,0,0,0,.243-.61V41.478a.625.625,0,0,0-.249-.53,1.122,1.122,0,0,0-.749-.249h-2.656a.257.257,0,0,1-.188-.082.264.264,0,0,1-.071-.194l0-.061v-.9a.26.26,0,0,1,.259-.261h4.473c.2,0,.2-.053.2-.141-.008-.194-.076-.228-.226-.228h-9.888c-.252,0-.252.083-.252.178s0,.191.239.191H144.4a.26.26,0,0,1,.259.261l0,.945a.263.263,0,0,1-.066.2.257.257,0,0,1-.192.086Zm6.191,2.92h-5.922a.813.813,0,0,1-.536-.138.565.565,0,0,1-.15-.453V41.7a.654.654,0,0,1,.147-.465.7.7,0,0,1,.5-.139h5.939a.866.866,0,0,1,.531.144.477.477,0,0,1,.169.419v1.423a.505.505,0,0,1-.187.422.862.862,0,0,1-.489.118m-6.09-.535a1.09,1.09,0,0,0,.168.011h5.922a.766.766,0,0,0,.157-.013l0-1.427c0-.006,0-.012,0-.017a.571.571,0,0,0-.182-.023h-5.939a1.052,1.052,0,0,0-.125.006.574.574,0,0,0,0,.075v1.332c0,.022,0,.041,0,.056m6.3-1.423,0,0,0,0m.978-3.648h-8.293a.66.66,0,0,1-.5-.189.732.732,0,0,1-.177-.551.653.653,0,0,1,.716-.7H141.9l-.3-1.349a.971.971,0,0,1-.01-.262h-.783a.667.667,0,0,1-.729-.722.686.686,0,0,1,.174-.515.735.735,0,0,1,.555-.2h8.14a.8.8,0,0,1,.534.191.73.73,0,0,1,.236.524.77.77,0,0,1-.164.474.758.758,0,0,1-.569.251h-.777a.8.8,0,0,1,0,.291l-.311,1.32h1.088a.672.672,0,0,1,.729.689.739.739,0,0,1-.169.564.651.651,0,0,1-.5.19m-8.253-.919c-.172,0-.2.045-.2.188a.28.28,0,0,0,.032.178.2.2,0,0,0,.127.03h8.293a.186.186,0,0,0,.121-.027.283.283,0,0,0,.028-.178c-.007-.144-.038-.191-.213-.191h-1.416a.258.258,0,0,1-.2-.1.264.264,0,0,1-.048-.223l.384-1.628a.191.191,0,0,0-.042-.166l-.083-.056a.127.127,0,1,0-.24,0l-.031.018c-.1.053-.109.1-.112.151a.242.242,0,0,1,0,.037l-.365,1.755a.26.26,0,0,1-.253.208h-3.349a.259.259,0,0,1-.253-.209l-.365-1.776a.3.3,0,0,0-.067-.175l-.048-.043a.264.264,0,0,1-.069-.288.259.259,0,0,1,.242-.168h4.546a.259.259,0,0,1,.25.194l0,.009s0-.008,0-.012a.259.259,0,0,1,.249-.191h1.273a.235.235,0,0,0,.182-.075.253.253,0,0,0,.033-.127.191.191,0,0,0-.07-.141.289.289,0,0,0-.182-.051h-8.14a.284.284,0,0,0-.183.043.217.217,0,0,0-.03.143c0,.162.028.207.213.207h1.2a.258.258,0,0,1,.24.165.264.264,0,0,1-.063.287l-.059.057a.264.264,0,0,0-.016.177l.368,1.653a.265.265,0,0,1-.05.221.258.258,0,0,1-.2.1Zm2.638-.524h2.929l.318-1.531a.745.745,0,0,1,.012-.08h-3.588c0,.02.008.041.01.062Z" transform="translate(-93.044 -22.269)" fill="#999"/>
    <path id="Path_14026" data-name="Path 14026" d="M32.18,32c-8.505,0-16.514-1.612-22.55-4.54C3.42,24.448,0,20.378,0,16S3.42,7.552,9.63,4.54C15.666,1.612,23.674,0,32.18,0S48.694,1.612,54.73,4.54c6.21,3.012,9.63,7.082,9.63,11.46s-3.42,8.448-9.63,11.46C48.694,30.388,40.685,32,32.18,32m0-30.49C23.893,1.51,16.114,3.07,10.275,5.9,4.611,8.649,1.492,12.235,1.492,16s3.119,7.351,8.783,10.1C16.114,28.93,23.893,30.49,32.18,30.49S48.246,28.93,54.085,26.1c5.664-2.747,8.783-6.333,8.783-10.1S59.749,8.649,54.085,5.9C48.246,3.07,40.467,1.51,32.18,1.51" transform="translate(0 0)" fill="#999"/>
  </g>
</svg>
