<svg xmlns="http://www.w3.org/2000/svg" width="23.98" height="32" viewBox="0 0 23.98 32">
    <path d="M.874.153a1.5 1.5 0 0 1 1.6.225L5 2.541 7.519.378a1.5 1.5 0 0 1 1.948 0l2.523 2.163L14.513.378a1.5 1.5 0 0 1 1.948 0l2.523 2.163L21.507.378a1.5 1.5 0 0 1 2.473 1.138v29a1.5 1.5 0 0 1-2.473 1.138l-2.523-2.163-2.523 2.163a1.5 1.5 0 0 1-1.948 0l-2.523-2.161-2.523 2.162a1.5 1.5 0 0 1-1.948 0L5 29.493l-2.527 2.162A1.5 1.5 0 0 1 0 30.518v-29A1.5 1.5 0 0 1 .874.153zm5.121 8.863a1 1 0 0 0 0 2h11.99a1 1 0 0 0 0-2zm-1 13a1 1 0 0 0 1 1h11.99a1 1 0 0 0 0-2H5.995A1 1 0 0 0 5 22.017zm1-7a1 1 0 0 0 0 2h11.99a1 1 0 0 0 0-2z" transform="translate(0 -.017)" style="fill:#fff"/>
</svg>
