<svg width="12" height="12" viewBox="0 0 12 12" fill="none" xmlns="http://www.w3.org/2000/svg">
<g clip-path="url(#clip0_136_910)">
<path d="M6.14556 0.299683H0.292419V11.6989H6.14556V0.299683Z" fill="#959595"/>
<path d="M6.14685 12H0.292394C0.130392 12 0 11.8664 0 11.7003V0.299696C0 0.133648 0.130392 0 0.292394 0H6.14554C6.30754 0 6.43793 0.133648 6.43793 0.299696V11.699C6.43793 11.865 6.30754 11.9986 6.14554 11.9986L6.14685 12ZM0.584788 11.3993H5.85314V0.599392H0.584788V11.3993Z" fill="#959595"/>
<path d="M4.55712 3.34192H1.88212C1.72011 3.34192 1.58972 3.17469 1.58972 2.96692C1.58972 2.75915 1.72011 2.59192 1.88212 2.59192H4.55712C4.71913 2.59192 4.84952 2.75915 4.84952 2.96692C4.84952 3.17469 4.71913 3.34192 4.55712 3.34192Z" fill="white"/>
<path d="M4.55712 5.41418H1.88212C1.72011 5.41418 1.58972 5.24695 1.58972 5.03918C1.58972 4.83141 1.72011 4.66418 1.88212 4.66418H4.55712C4.71913 4.66418 4.84952 4.83141 4.84952 5.03918C4.84952 5.24695 4.71913 5.41418 4.55712 5.41418Z" fill="white"/>
<path d="M11.7076 3.90015H7.31775V11.7003H11.7076V3.90015Z" fill="#959595"/>
<path d="M11.7076 12.0001H7.31772C7.15572 12.0001 7.02533 11.8664 7.02533 11.7004V3.90016C7.02533 3.73411 7.15572 3.60046 7.31772 3.60046H11.7076C11.8696 3.60046 12 3.73411 12 3.90016V11.7004C12 11.8664 11.8696 12.0001 11.7076 12.0001ZM7.61012 11.3993H11.4152V4.19986H7.61012V11.3993Z" fill="#959595"/>
<path d="M10.1179 6.19107H8.90616C8.74416 6.19107 8.61377 6.05742 8.61377 5.89137C8.61377 5.72532 8.74416 5.59167 8.90616 5.59167H10.1179C10.2799 5.59167 10.4103 5.72532 10.4103 5.89137C10.4103 6.05742 10.2799 6.19107 10.1179 6.19107Z" fill="white"/>
<path d="M10.1179 8.26468H8.90616C8.74416 8.26468 8.61377 8.13103 8.61377 7.96498C8.61377 7.79893 8.74416 7.66528 8.90616 7.66528H10.1179C10.2799 7.66528 10.4103 7.79893 10.4103 7.96498C10.4103 8.13103 10.2799 8.26468 10.1179 8.26468Z" fill="white"/>
</g>
<defs>
<clipPath id="clip0_136_910">
<rect width="12" height="12" fill="white"/>
</clipPath>
</defs>
</svg>
