<svg width="12" height="12" viewBox="0 0 12 12" fill="none" xmlns="http://www.w3.org/2000/svg">
<g clip-path="url(#clip0_136_1024)">
<path d="M1.22938 5.56838L6.43451 10.7735C7.48949 11.8285 9.20129 11.8285 10.2592 10.7735L11.3432 9.68947C11.6396 9.39303 11.6396 8.9135 11.3432 8.61415L9.94239 7.21333C9.66338 6.93433 9.21001 6.93433 8.9281 7.21333L8.68978 7.45164C8.20444 7.93699 7.41974 7.93699 6.93439 7.45164L4.54834 5.06559C4.063 4.58025 4.063 3.79555 4.54834 3.31021L4.78666 3.07189C5.06566 2.79289 5.06566 2.33951 4.78666 2.0576L3.38584 0.656778C3.0894 0.360338 2.60986 0.360338 2.31051 0.656778L1.22647 1.74082C0.171497 2.79579 0.171497 4.50759 1.22647 5.56547L1.22938 5.56838Z" fill="#959595"/>
<path d="M8.34391 12C7.53887 12 6.73674 11.6949 6.12352 11.0816L0.918382 5.87651C0.325503 5.28363 0 4.49603 0 3.65611C0 2.8162 0.325503 2.0286 0.918382 1.43572L2.00242 0.351682C2.46743 -0.113321 3.22596 -0.113321 3.69387 0.351682L5.0947 1.75251C5.31267 1.97048 5.43182 2.2611 5.43182 2.56626C5.43182 2.87142 5.31267 3.16205 5.0947 3.38002L4.85638 3.61833C4.5425 3.93221 4.5425 4.44081 4.85638 4.75469L7.24243 7.14074C7.55631 7.45461 8.06491 7.45461 8.37878 7.14074L8.6171 6.90242C9.05304 6.46648 9.81158 6.46648 10.2475 6.90242L11.6483 8.30324C12.1133 8.76825 12.1133 9.52679 11.6483 9.9947L10.5643 11.0787C9.95108 11.692 9.14895 11.9971 8.34391 11.9971V12ZM2.85105 0.871905C2.76677 0.871905 2.6854 0.903874 2.62146 0.967812L1.53742 2.05185C1.1102 2.47907 0.871882 3.0487 0.871882 3.65611C0.871882 4.26353 1.10729 4.83025 1.53742 5.26038L6.74255 10.4655C7.16978 10.8927 7.7394 11.131 8.34682 11.131C8.95423 11.131 9.52095 10.8956 9.95108 10.4655L11.0351 9.38147C11.1601 9.2565 11.1601 9.05016 11.0351 8.92519L9.63429 7.52436C9.52386 7.41392 9.34657 7.41392 9.23613 7.52436L8.99782 7.76268C8.68104 8.07946 8.25963 8.25384 7.81206 8.25384C7.36449 8.25384 6.94309 8.07946 6.6263 7.76268L4.24025 5.37663C3.92347 5.05984 3.74909 4.63843 3.74909 4.19087C3.74909 3.7433 3.92347 3.32189 4.24025 3.00511L4.47857 2.7668C4.589 2.65636 4.589 2.47907 4.47857 2.36864L3.07774 0.967812C3.0138 0.903874 2.93243 0.871905 2.84815 0.871905H2.85105Z" fill="#959595"/>
</g>
<defs>
<clipPath id="clip0_136_1024">
<rect width="12" height="12" fill="white"/>
</clipPath>
</defs>
</svg>
