<svg width="16" height="16" viewBox="0 0 16 16" fill="none" xmlns="http://www.w3.org/2000/svg">
<g clip-path="url(#clip0_131_697)">
<path d="M2 2.89001H14" stroke="#333333" stroke-width="1.4" stroke-linecap="round" stroke-linejoin="round"/>
<path d="M2 8.14001H14" stroke="#333333" stroke-width="1.4" stroke-linecap="round" stroke-linejoin="round"/>
<path d="M2 13.39H14" stroke="#333333" stroke-width="1.4" stroke-linecap="round" stroke-linejoin="round"/>
<path d="M11.15 4.5C11.9784 4.5 12.65 3.82843 12.65 3C12.65 2.17157 11.9784 1.5 11.15 1.5C10.3216 1.5 9.64999 2.17157 9.64999 3C9.64999 3.82843 10.3216 4.5 11.15 4.5Z" fill="white" stroke="#222222" stroke-width="1.4" stroke-linecap="round" stroke-linejoin="round"/>
<path d="M6.32999 9.61999C7.15841 9.61999 7.82999 8.94842 7.82999 8.12C7.82999 7.29157 7.15841 6.62 6.32999 6.62C5.50156 6.62 4.82999 7.29157 4.82999 8.12C4.82999 8.94842 5.50156 9.61999 6.32999 9.61999Z" fill="white" stroke="#222222" stroke-width="1.4" stroke-linecap="round" stroke-linejoin="round"/>
<path d="M11.15 14.5C11.9784 14.5 12.65 13.8284 12.65 13C12.65 12.1716 11.9784 11.5 11.15 11.5C10.3216 11.5 9.64999 12.1716 9.64999 13C9.64999 13.8284 10.3216 14.5 11.15 14.5Z" fill="white" stroke="#222222" stroke-width="1.4" stroke-linecap="round" stroke-linejoin="round"/>
</g>
<defs>
<clipPath id="clip0_131_697">
<rect width="13.4" height="14.4" fill="white" transform="translate(1.29999 0.800049)"/>
</clipPath>
</defs>
</svg>
