<svg width="11" height="12" viewBox="0 0 11 12" fill="none" xmlns="http://www.w3.org/2000/svg">
<path d="M4.81703 11.8283C4.93644 11.9436 5.09395 12.0025 5.25146 12.0025C5.40898 12.0025 5.56649 11.9436 5.68589 11.8283L8.96572 8.65972C11.0134 6.68302 11.0134 3.46291 8.96572 1.4862C7.97491 0.527284 6.65638 0 5.25146 0C3.84655 0 2.53056 0.527284 1.53721 1.4862C-0.510451 3.46536 -0.510451 6.68302 1.53721 8.65972L4.81957 11.8283H4.81703ZM3.80336 3.67382C4.18952 3.30104 4.70271 3.09503 5.25146 3.09503C5.80022 3.09503 6.31341 3.30104 6.69957 3.67382C7.08573 4.0466 7.29913 4.54445 7.29913 5.07173C7.29913 5.59902 7.08573 6.09687 6.69957 6.46965C6.31341 6.84243 5.79768 7.04844 5.25146 7.04844C4.70525 7.04844 4.18952 6.84243 3.80336 6.46965C3.4172 6.09687 3.2038 5.59902 3.2038 5.07173C3.2038 4.54445 3.4172 4.0466 3.80336 3.67382Z" fill="#959595"/>
</svg>
