<svg width="24" height="25" viewBox="0 0 24 25" fill="none" xmlns="http://www.w3.org/2000/svg">
<g clip-path="url(#clip0_139_1052)">
<path d="M20.135 8.75001L17.995 4.58001C17.775 4.27001 17.265 4.01001 16.885 4.01001H6.69498C6.30498 4.01001 5.80498 4.27001 5.58498 4.58001L3.86498 8.75001C3.73498 8.93001 3.61498 9.20001 3.54498 9.47001H20.455C20.375 9.20001 20.265 8.93001 20.135 8.75001Z" fill="white" stroke="#555555" stroke-width="1.6" stroke-linecap="round" stroke-linejoin="round"/>
<path d="M3.54499 9.46997C3.49499 9.66997 3.45499 9.85997 3.45499 10.02V20.3C3.45499 20.69 3.77499 21 4.15499 21H19.835C20.225 21 20.535 20.68 20.535 20.3V10.02C20.535 9.85997 20.505 9.65997 20.445 9.46997H3.54499Z" fill="white" stroke="#555555" stroke-width="1.6" stroke-linecap="round" stroke-linejoin="round"/>
<path d="M14.105 8.75001L13.815 4.58001C13.765 4.27001 13.645 4.01001 13.545 4.01001H10.445C10.355 4.01001 10.235 4.27001 10.175 4.58001L9.88499 8.75001C9.85499 8.93001 9.82499 9.20001 9.80499 9.47001H14.175C14.155 9.20001 14.125 8.93001 14.095 8.75001H14.105Z" fill="white" stroke="#555555" stroke-width="1.6" stroke-linecap="round" stroke-linejoin="round"/>
<path d="M9.81501 9.46997C9.80501 9.52997 9.79501 9.58997 9.79501 9.63997V12.99C9.79501 13.11 9.87501 13.21 9.96501 13.21H14.035C14.125 13.21 14.205 13.11 14.205 12.99V9.63997C14.205 9.58997 14.205 9.52997 14.185 9.46997H9.81501Z" fill="white" stroke="#555555" stroke-width="1.6" stroke-linecap="round" stroke-linejoin="round"/>
</g>
<defs>
<clipPath id="clip0_139_1052">
<rect width="18.69" height="18.6" fill="white" transform="translate(2.655 3.19995)"/>
</clipPath>
</defs>
</svg>
