<svg width="20" height="21" viewBox="0 0 20 21" fill="none" xmlns="http://www.w3.org/2000/svg">
<g clip-path="url(#clip0_139_1090)">
<path d="M10.2 15.6802C10.2 16.7902 9.29999 17.6902 8.18999 17.6902C7.07999 17.6902 6.17999 16.7902 6.17999 15.6802C6.17999 14.5702 7.07999 13.6702 8.18999 13.6702C9.29999 13.6702 10.2 14.5702 10.2 15.6802Z" stroke="#555555" stroke-width="1.6" stroke-linecap="round" stroke-linejoin="round"/>
<path d="M16.71 15.6802C16.71 16.7902 15.81 17.6902 14.7 17.6902C13.59 17.6902 12.69 16.7902 12.69 15.6802C12.69 14.5702 13.59 13.6702 14.7 13.6702C15.81 13.6702 16.71 14.5702 16.71 15.6802Z" stroke="#555555" stroke-width="1.6" stroke-linecap="round" stroke-linejoin="round"/>
<path d="M1.26999 3.31006L3.24999 3.85006L6.86999 13.4501H16.11L18.73 7.27006H7.45999" stroke="#555555" stroke-width="1.6" stroke-linecap="round" stroke-linejoin="round"/>
</g>
<defs>
<clipPath id="clip0_139_1090">
<rect width="20" height="20" fill="white" transform="translate(0 0.5)"/>
</clipPath>
</defs>
</svg>
