<svg width="24" height="25" viewBox="0 0 24 25" fill="none" xmlns="http://www.w3.org/2000/svg">
<g clip-path="url(#clip0_143_742)">
<path d="M4.24004 3.29517V18.4252C4.24004 18.4252 3.98004 20.8852 2.42004 20.8852" stroke="white" stroke-width="1.6" stroke-linecap="round" stroke-linejoin="round"/>
<path d="M14.88 3.29517C14.84 3.94517 14.32 4.45517 13.68 4.45517C13.04 4.45517 12.52 3.94517 12.48 3.29517H11.36C11.32 3.94517 10.8 4.45517 10.16 4.45517C9.52005 4.45517 9.00005 3.94517 8.96005 3.29517H7.84005C7.80005 3.94517 7.28005 4.45517 6.64005 4.45517C6.00005 4.45517 5.48005 3.94517 5.44005 3.29517H4.33005L4.26005 15.5852H0.800049V18.4352C0.800049 20.1152 2.23005 21.2852 3.98005 21.2852H13.04C14.79 21.2852 16.22 20.1152 16.22 18.4352V3.29517H14.88Z" stroke="white" stroke-width="1.6" stroke-linecap="round" stroke-linejoin="round"/>
<path d="M6.82996 8.01514H13.92" stroke="white" stroke-width="1.6" stroke-linecap="round" stroke-linejoin="round"/>
<path d="M6.82996 11.5051H13.92" stroke="white" stroke-width="1.6" stroke-linecap="round" stroke-linejoin="round"/>
<path d="M6.82996 15.4851H10.15" stroke="white" stroke-width="1.6" stroke-linecap="round" stroke-linejoin="round"/>
</g>
<defs>
<clipPath id="clip0_143_742">
<rect width="17.02" height="19.59" fill="white" transform="translate(0 2.49512)"/>
</clipPath>
</defs>
</svg>
