<svg width="33" height="29" viewBox="0 0 33 29" fill="none" xmlns="http://www.w3.org/2000/svg">
<g clip-path="url(#clip0_93_10)">
<path d="M9.375 8.5C8.87772 8.5 8.40081 8.69754 8.04917 9.04917C7.69754 9.40081 7.5 9.87772 7.5 10.375V22.875C7.5 23.3723 7.69754 23.8492 8.04917 24.2008C8.40081 24.5525 8.87772 24.75 9.375 24.75H10C10 25.7446 10.3951 26.6984 11.0983 27.4017C11.8016 28.1049 12.7554 28.5 13.75 28.5C14.7446 28.5 15.6984 28.1049 16.4017 27.4017C17.1049 26.6984 17.5 25.7446 17.5 24.75H22.5C22.5 25.7446 22.8951 26.6984 23.5983 27.4017C24.3016 28.1049 25.2554 28.5 26.25 28.5C27.2446 28.5 28.1984 28.1049 28.9017 27.4017C29.6049 26.6984 30 25.7446 30 24.75H31.25C31.5815 24.75 31.8995 24.6183 32.1339 24.3839C32.3683 24.1495 32.5 23.8315 32.5 23.5C32.5 23.1685 32.3683 22.8505 32.1339 22.6161C31.8995 22.3817 31.5815 22.25 31.25 22.25V17.77C31.2506 17.4415 31.1864 17.1161 31.0612 16.8123C30.9359 16.5086 30.752 16.2326 30.52 16L27.5 12.98C27.2674 12.748 26.9914 12.5641 26.6877 12.4388C26.3839 12.3136 26.0585 12.2494 25.73 12.25H23.75V10.375C23.75 9.87772 23.5525 9.40081 23.2008 9.04917C22.8492 8.69754 22.3723 8.5 21.875 8.5H9.375ZM23.75 14.75H25.73L28.75 17.77V18.5H23.75V14.75ZM11.875 24.75C11.875 24.3792 11.985 24.0166 12.191 23.7083C12.397 23.4 12.6899 23.1596 13.0325 23.0177C13.3751 22.8758 13.7521 22.8387 14.1158 22.911C14.4795 22.9834 14.8136 23.162 15.0758 23.4242C15.338 23.6864 15.5166 24.0205 15.589 24.3842C15.6613 24.7479 15.6242 25.1249 15.4823 25.4675C15.3404 25.8101 15.1 26.103 14.7917 26.309C14.4834 26.515 14.1208 26.625 13.75 26.625C13.2527 26.625 12.7758 26.4275 12.4242 26.0758C12.0725 25.7242 11.875 25.2473 11.875 24.75ZM26.25 22.875C26.6208 22.875 26.9834 22.985 27.2917 23.191C27.6 23.397 27.8404 23.6899 27.9823 24.0325C28.1242 24.3751 28.1613 24.7521 28.089 25.1158C28.0166 25.4795 27.838 25.8136 27.5758 26.0758C27.3136 26.338 26.9795 26.5166 26.6158 26.589C26.2521 26.6613 25.8751 26.6242 25.5325 26.4823C25.1899 26.3404 24.897 26.1 24.691 25.7917C24.485 25.4834 24.375 25.1208 24.375 24.75C24.375 24.2527 24.5725 23.7758 24.9242 23.4242C25.2758 23.0725 25.7527 22.875 26.25 22.875Z" fill="white"/>
</g>
<path d="M7.75851 16.7181C9.36551 14.7071 13.0315 9.83106 13.0315 7.09306C13.0417 6.29657 12.8936 5.50598 12.5959 4.76716C12.2981 4.02835 11.8566 3.35603 11.2969 2.7892C10.7373 2.22238 10.0706 1.77234 9.33566 1.4652C8.6007 1.15806 7.81206 0.999934 7.0155 1C6.21894 1.00007 5.43033 1.15832 4.69541 1.46558C3.9605 1.77284 3.29392 2.22299 2.73436 2.78991C2.1748 3.35683 1.73339 4.02923 1.43575 4.76809C1.13811 5.50695 0.990171 6.29757 1.00051 7.09406C1.00051 9.83206 4.66651 14.7071 6.27351 16.7191C6.36217 16.8311 6.47501 16.9215 6.60359 16.9837C6.73218 17.046 6.87317 17.0783 7.01601 17.0783C7.15885 17.0783 7.29984 17.046 7.42842 16.9837C7.557 16.9215 7.66985 16.8301 7.75851 16.7181ZM7.01651 5.08806C7.41297 5.08826 7.80048 5.20599 8.13005 5.42638C8.45962 5.64677 8.71645 5.95992 8.86808 6.32624C9.01971 6.69257 9.05933 7.09562 8.98193 7.48446C8.90454 7.8733 8.7136 8.23046 8.43326 8.51081C8.15291 8.79115 7.79575 8.98209 7.40691 9.05948C7.01807 9.13688 6.61501 9.09726 6.24869 8.94563C5.88236 8.794 5.56921 8.53717 5.34883 8.2076C5.12844 7.87803 5.0107 7.49053 5.01051 7.09406C5.01038 6.83059 5.06217 6.56968 5.16294 6.32624C5.2637 6.0828 5.41146 5.86161 5.59776 5.67531C5.78406 5.48901 6.00525 5.34125 6.24869 5.24049C6.49213 5.13973 6.75304 5.08793 7.01651 5.08806Z" fill="white" stroke="#CCCCCC" stroke-width="0.5"/>
<defs>
<clipPath id="clip0_93_10">
<rect width="25" height="20" fill="white" transform="translate(7.5 8.5)"/>
</clipPath>
</defs>
</svg>
