<svg xmlns="http://www.w3.org/2000/svg" width="17.068" height="16.002" viewBox="0 0 17.068 16.002">
    <path d="M0 29.335A1.066 1.066 0 0 0 1.067 30.4H2.89a2.666 2.666 0 0 0 4.887 0H16a1.067 1.067 0 1 0 0-2.134H7.777a2.666 2.666 0 0 0-4.887 0H1.067A1.066 1.066 0 0 0 0 29.335zm4.267 0A1.067 1.067 0 1 1 5.334 30.4a1.067 1.067 0 0 1-1.067-1.065zM10.668 24a1.067 1.067 0 1 1 1.067 1.067A1.067 1.067 0 0 1 10.668 24zm1.067-2.667a2.662 2.662 0 0 0-2.444 1.6H1.067a1.067 1.067 0 1 0 0 2.134h8.224a2.666 2.666 0 0 0 4.887 0H16a1.067 1.067 0 0 0 0-2.134h-1.822a2.662 2.662 0 0 0-2.444-1.599zM6.4 19.734a1.067 1.067 0 1 1 1.067-1.067A1.067 1.067 0 0 1 6.4 19.734zM8.844 17.6a2.666 2.666 0 0 0-4.887 0h-2.89a1.067 1.067 0 0 0 0 2.134h2.89a2.666 2.666 0 0 0 4.887 0H16a1.067 1.067 0 0 0 0-2.134z" transform="translate(0 -16)" style="fill:#999"/>
</svg>
