<svg xmlns="http://www.w3.org/2000/svg" width="80.53" height="102.69" viewBox="0 0 80.53 102.69">
  <path id="ico_medicine" d="M65.775,27.115v-2.08h.25a3.683,3.683,0,0,0,3.68-3.68V4.335a3.683,3.683,0,0,0-3.68-3.68H14.975a3.683,3.683,0,0,0-3.68,3.68v17.02a3.683,3.683,0,0,0,3.68,3.68h.25v2.08A32.02,32.02,0,0,0,.235,54.255v45.41a3.683,3.683,0,0,0,3.68,3.68h73.17a3.683,3.683,0,0,0,3.68-3.68V54.255A32.02,32.02,0,0,0,65.775,27.115Zm-47.12-19.1h43.69v9.66H18.655Zm1.99,24.46a3.671,3.671,0,0,0,1.94-3.24v-4.2h35.83v4.2a3.679,3.679,0,0,0,1.94,3.24A24.685,24.685,0,0,1,73.4,54.255v.43H7.595v-.43A24.674,24.674,0,0,1,20.645,32.475ZM7.595,95.985V85.1H73.4v10.89Z" transform="translate(-0.235 -0.655)" fill="#e9efff"/>
</svg>
