<svg xmlns="http://www.w3.org/2000/svg" xmlns:xlink="http://www.w3.org/1999/xlink" width="20" height="20" viewBox="0 0 20 20">
  <defs>
    <clipPath id="clip-path">
      <rect id="Rectangle_16" data-name="Rectangle 16" width="20" height="20" fill="#fff"/>
    </clipPath>
    <clipPath id="clip-path-2">
      <rect id="Rectangle_15" data-name="Rectangle 15" width="24.62" height="20" transform="translate(-4)" fill="#fff"/>
    </clipPath>
  </defs>
  <g id="ico_delivery" clip-path="url(#clip-path)">
    <g id="Group_10" data-name="Group 10" clip-path="url(#clip-path-2)">
      <path id="Path_29" data-name="Path 29" d="M18.83,18.81H-3.3" fill="none" stroke="#fff" stroke-linecap="round" stroke-linejoin="round" stroke-width="1.4"/>
      <path id="Path_30" data-name="Path 30" d="M4.06,16.1a2.08,2.08,0,1,1-2.08-2.08A2.078,2.078,0,0,1,4.06,16.1Z" fill="none" stroke="#fff" stroke-linecap="round" stroke-linejoin="round" stroke-width="1.4"/>
      <path id="Path_31" data-name="Path 31" d="M13.96,18.18a2.08,2.08,0,1,0-2.08-2.08A2.08,2.08,0,0,0,13.96,18.18Z" fill="none" stroke="#fff" stroke-linecap="round" stroke-linejoin="round" stroke-width="1.4"/>
      <path id="Path_32" data-name="Path 32" d="M11.09,4.21h4.05l2.23,4.44,1.81,1.64v4.66a.734.734,0,0,1-.73.73H16.34" fill="none" stroke="#fff" stroke-linecap="round" stroke-linejoin="round" stroke-width="1.4"/>
      <path id="Path_33" data-name="Path 33" d="M11.6,15.67H4.3" fill="none" stroke="#fff" stroke-linecap="round" stroke-linejoin="round" stroke-width="1.4"/>
      <path id="Path_34" data-name="Path 34" d="M15.77,5.83H14.25V8.97h3.46" fill="none" stroke="#fff" stroke-linecap="round" stroke-linejoin="round" stroke-width="1.4"/>
      <path id="Path_35" data-name="Path 35" d="M11.01,15.67V2.83H-2.8V15.67H-.3" fill="none" stroke="#fff" stroke-linecap="round" stroke-linejoin="round" stroke-width="1.4"/>
      <path id="Path_36" data-name="Path 36" d="M16.09,11.86v.05" fill="none" stroke="#fff" stroke-linecap="round" stroke-linejoin="round" stroke-width="1.4"/>
    </g>
  </g>
</svg>
