<svg xmlns="http://www.w3.org/2000/svg" xmlns:xlink="http://www.w3.org/1999/xlink" width="16" height="16" viewBox="0 0 16 16">
  <defs>
    <clipPath id="clip-path">
      <rect id="Rectangle_9" data-name="Rectangle 9" width="16" height="16" transform="translate(0.5)" fill="#fff"/>
    </clipPath>
  </defs>
  <g id="ico_heart_on" transform="translate(-0.5)" clip-path="url(#clip-path)">
    <path id="Path_5" data-name="Path 5" d="M14.1,6.171A3,3,0,0,0,10.962,3.2,3.129,3.129,0,0,0,8.1,5.064,3.129,3.129,0,0,0,5.239,3.2,3,3,0,0,0,2.1,6.171,4.464,4.464,0,0,0,2.888,8.4C4.514,10.793,7.71,13.6,8.1,13.6c.454,0,3.572-2.822,5.12-5.2a6.511,6.511,0,0,0,.873-2.229Z" fill="#e53030" stroke="#e53030" stroke-linecap="round" stroke-linejoin="round" stroke-width="1.6"/>
  </g>
</svg>
