<svg xmlns="http://www.w3.org/2000/svg" width="13.83" height="14.016" viewBox="0 0 13.83 14.016">
  <g id="ico_calendar" transform="translate(-1.079 -0.988)">
    <path id="Path_6" data-name="Path 6" d="M12.809,2.594H3.179a1.4,1.4,0,0,0-1.4,1.4V12.9a1.4,1.4,0,0,0,1.4,1.4h9.63a1.4,1.4,0,0,0,1.4-1.4V3.994A1.4,1.4,0,0,0,12.809,2.594Z" fill="none" stroke="#333" stroke-linecap="round" stroke-linejoin="round" stroke-width="1.4"/>
    <path id="Path_7" data-name="Path 7" d="M4.439,1.688v1.89" fill="none" stroke="#333" stroke-linecap="round" stroke-linejoin="round" stroke-width="1.4"/>
    <path id="Path_8" data-name="Path 8" d="M11.559,1.688v1.89" fill="none" stroke="#333" stroke-linecap="round" stroke-linejoin="round" stroke-width="1.4"/>
    <path id="Path_9" data-name="Path 9" d="M1.949,5.825h11.96" fill="none" stroke="#333" stroke-linecap="round" stroke-linejoin="round" stroke-width="1.4"/>
    <path id="Path_10" data-name="Path 10" d="M5.489,7.819H3.719v1.77h1.77Z" fill="#333"/>
    <path id="Path_11" data-name="Path 11" d="M8.588,7.819H6.818v1.77h1.77Z" fill="#333"/>
    <path id="Path_12" data-name="Path 12" d="M5.489,10.694H3.719v1.77h1.77Z" fill="#333"/>
  </g>
</svg>
