<svg xmlns="http://www.w3.org/2000/svg" xmlns:xlink="http://www.w3.org/1999/xlink" width="20" height="20" viewBox="0 0 20 20">
  <defs>
    <clipPath id="clip-path">
      <rect id="Rectangle_10" data-name="Rectangle 10" width="20" height="20" fill="#fff"/>
    </clipPath>
  </defs>
  <g id="ico_heart_line" clip-path="url(#clip-path)">
    <path id="Path_13" data-name="Path 13" d="M17,7.714A3.744,3.744,0,0,0,13.077,4,3.911,3.911,0,0,0,9.5,6.33,3.911,3.911,0,0,0,5.923,4,3.744,3.744,0,0,0,2,7.714,5.579,5.579,0,0,0,2.985,10.5C5.018,13.491,9.012,17,9.5,17c.568,0,4.465-3.527,6.4-6.5a8.14,8.14,0,0,0,1.092-2.786Z" fill="none" stroke="#fff" stroke-linecap="round" stroke-linejoin="round" stroke-width="1.6"/>
  </g>
</svg>
