<?xml version="1.0" encoding="UTF-8"?>
<svg id="Layer_2" xmlns="http://www.w3.org/2000/svg" viewBox="0 0 149.18 32.78">
  <defs>
    <style>
      .cls-1 {
        fill: #fff;
      }
    </style>
  </defs>
  <g id="Layer_1-2" data-name="Layer_1">
    <path class="cls-1" d="M19.14,0c1.05,0,1.58.46,1.58,1.38v8.14h4.64V1.46C25.36.48,25.86,0,26.87,0s1.54.5,1.54,1.5v15.07c0,.48-.17.89-.51,1.23-.28.28-.62.42-1.03.42s-.76-.13-1.01-.37c-.33-.37-.5-.8-.5-1.28v-4.28h-4.64v4.28c0,.48-.17.89-.51,1.23-.28.28-.63.42-1.07.42s-.76-.13-1.01-.37c-.33-.37-.49-.8-.49-1.28V1.38C17.64.46,18.14,0,19.14,0ZM59.04,0c.39-.03.74.09,1.04.34.34.24.51.59.51,1.04v29.82c0,.46-.15.83-.45,1.1-.32.32-.7.48-1.13.48s-.81-.14-1.09-.42c-.3-.3-.45-.69-.45-1.16v-15.16h-4.79c-.5,0-.88-.15-1.13-.43-.3-.26-.45-.58-.45-.96,0-.4.15-.73.44-.98.27-.27.64-.41,1.1-.41h4.83V1.46c0-.48.15-.85.45-1.08.29-.26.67-.38,1.12-.38ZM66.23,0c.39,0,.73.12,1.03.38.34.24.51.58.51,1.04v29.78c0,.46-.15.83-.46,1.1-.31.32-.67.48-1.08.48s-.77-.14-1.05-.42c-.3-.3-.46-.69-.46-1.16V1.46c0-.45.16-.81.48-1.1.28-.24.62-.36,1.03-.36ZM1.5.7c.42,0,.77.12,1.05.37.35.32.53.72.53,1.2v3.46h7.49v-3.57c0-.49.17-.86.51-1.12.26-.23.59-.34,1-.34s.77.13,1.07.38c.34.24.51.6.51,1.08v12.37c0,.97-.43,1.77-1.27,2.4-.74.57-1.69.86-2.84.86H3.65c-1.08,0-1.93-.27-2.56-.83-.73-.6-1.09-1.41-1.09-2.43V2.31c0-.49.15-.89.45-1.19.29-.28.64-.42,1.05-.42ZM40.83,1.17h12.71c.89,0,1.34.39,1.34,1.18-.04,1.03-.48,1.55-1.34,1.55h-4.85v6.3c0,4.01.62,7.57,1.88,10.67,1.43,2.7,3.08,4.88,4.95,6.56.39.32.57.71.54,1.17-.03.38-.21.71-.52.99-.32.28-.67.44-1.06.48-.44.03-.85-.12-1.22-.45-1.46-1.38-2.78-3.16-3.97-5.34-1.3-2.36-2.02-4.6-2.15-6.72-.16,2.17-.89,4.41-2.19,6.73-1.25,2.22-2.68,4.03-4.3,5.41-.37.27-.77.41-1.2.41-.39-.04-.7-.2-.95-.47-.26-.28-.38-.63-.36-1.06.04-.42.26-.8.68-1.15,1.81-1.64,3.29-3.61,4.45-5.93,1.55-3.51,2.33-7.26,2.33-11.26V3.9h-4.81c-.98,0-1.45-.47-1.42-1.4,0-.89.48-1.33,1.46-1.33ZM3.08,8.5v5.68c0,.38.08.62.22.74.16.15.47.22.92.22h4.91c.49,0,.85-.08,1.06-.24.25-.18.38-.42.38-.72v-5.68H3.08ZM2.47,21.38h21.88c1.2,0,2.17.31,2.91.94.77.68,1.15,1.54,1.15,2.59v6.33c0,.46-.18.85-.53,1.17-.28.25-.61.37-1.01.37-.42,0-.76-.12-1.03-.36-.32-.32-.48-.71-.48-1.18v-6.21c0-.32-.06-.53-.18-.65-.2-.15-.5-.23-.91-.23H2.47c-1.02,0-1.53-.46-1.53-1.38s.51-1.39,1.53-1.39Z"/>
    <path class="cls-1" d="M103.4,0c1.05,0,1.58.47,1.58,1.41v4.21h3.87c.91,0,1.36.44,1.36,1.34s-.45,1.39-1.36,1.39h-3.87v4.45h3.87c.91,0,1.36.45,1.36,1.34s-.45,1.39-1.36,1.39h-3.87v1.2c0,.47-.17.84-.5,1.11-.29.28-.64.42-1.08.42s-.78-.15-1.09-.45c-.27-.25-.41-.61-.41-1.09V1.42c0-.95.5-1.42,1.5-1.42ZM87.48.66c2.85,0,5,.8,6.44,2.41,1.78,1.65,2.67,3.61,2.67,5.9s-.9,4.17-2.69,5.79c-1.4,1.6-3.54,2.41-6.42,2.41s-5.23-.97-7.01-2.91c-1.45-1.27-2.18-3.03-2.18-5.29s.76-4.22,2.29-5.78c1.71-1.69,4.01-2.53,6.9-2.53ZM87.48,3.43c-1.99,0-3.53.56-4.63,1.68-.96.99-1.44,2.27-1.44,3.86s.48,2.82,1.45,3.83c1.09,1.14,2.63,1.71,4.62,1.71s3.44-.46,4.46-1.38c1.07-1.24,1.61-2.63,1.61-4.16s-.4-2.82-1.21-3.74c-1.29-1.2-2.91-1.8-4.86-1.8ZM81.08,20.68h19.69c1.33,0,2.42.38,3.26,1.13.63.58.95,1.45.95,2.62v6.81c0,.46-.18.85-.53,1.17-.27.25-.62.37-1.05.37s-.75-.12-1.03-.36c-.31-.32-.47-.71-.47-1.18v-6.8c0-.37-.07-.62-.22-.74-.18-.17-.49-.25-.92-.25h-19.68c-.95,0-1.42-.46-1.42-1.37-.03-.93.44-1.4,1.42-1.4Z"/>
    <path class="cls-1" d="M120.44.58h24.55c.44,0,.81.13,1.1.38.29.29.44.62.44.97,0,.33-.11.65-.33.93-.3.3-.66.45-1.1.45h-3.84l.23.14c.08.05.15.12.21.19.28.33.37.73.29,1.18l-1.16,4.85h4.27c.91,0,1.38.44,1.42,1.31.05.95-.35,1.43-1.23,1.43h-25.01c-.87,0-1.29-.47-1.26-1.4,0-.89.46-1.34,1.38-1.34h4.31l-1.12-4.97c-.08-.49,0-.89.28-1.22l.18-.17h-3.61c-.95,0-1.42-.45-1.42-1.37-.03-.9.44-1.36,1.42-1.36ZM126.03,3.31l.19.17c.22.23.35.53.4.9l1.1,5.29h10.1l1.1-5.23c.03-.48.28-.84.75-1.09l.07-.04h-13.71ZM117.9,14.86h29.82c.93,0,1.42.49,1.46,1.46,0,.8-.46,1.2-1.38,1.2h-13.49v2.89s8,0,8,0c1.09,0,2.01.3,2.73.9.7.53,1.06,1.27,1.06,2.2v5c0,.97-.32,1.76-.96,2.37-.64.64-1.48.96-2.53.96h-19.6c-1.13,0-2-.28-2.59-.85-.65-.59-.98-1.39-.98-2.4v-4.78c0-1.05.33-1.89.98-2.51.65-.6,1.53-.89,2.63-.89h8.23v-.1s-.01-2.79-.01-2.79h-13.41c-1,0-1.5-.45-1.5-1.35s.51-1.31,1.54-1.31ZM123.74,23.14c-.49,0-.81.06-.94.17-.15.16-.23.44-.23.85v3.97c0,.4.05.65.17.75.18.15.56.23,1.12.23h17.86c.48,0,.81-.07,1-.19.17-.13.26-.34.26-.64v-4.24c0-.33-.07-.54-.19-.62-.26-.19-.64-.28-1.14-.28h-17.91Z"/>
  </g>
</svg>